<svg xmlns="http://www.w3.org/2000/svg" width="20" height="20" viewBox="0 0 975.9 975.9"><path d="M386.842 940.801c23.4 23.399 54.101 35.1 84.9 35.1s61.4-11.7 84.9-35.1l368-368c19.6-19.601 33.199-47.601 35-75.4.5-7.9.5-16.5-.7-24.3-2.2-15-6.5-29.601-13.9-42.9-5.5-9.899-12.399-19.1-20.399-27.1l-368-368c-46.9-46.801-122.9-46.801-169.801 0-46.899 46.899-46.899 122.8 0 169.699l163.1 163.1h-414c-66.3 0-120 53.7-120 120s53.7 120 120 120h414L386.841 771.1c-46.899 46.9-46.899 122.9.001 169.701z" fill="#FFF"/></svg>